<?xml version="1.0" encoding="utf-8"?>
<!-- Generator: Adobe Illustrator 22.1.0, SVG Export Plug-In . SVG Version: 6.00 Build 0)  -->
<svg version="1.1" id="Слой_1" xmlns="http://www.w3.org/2000/svg" xmlns:xlink="http://www.w3.org/1999/xlink" x="0px" y="0px"
	 viewBox="0 0 666.2 241" style="enable-background:new 0 0 666.2 241;" xml:space="preserve">
<style type="text/css">
	.st0{fill:#C10100;}
	.st1{fill:#7A0101;}
	.st2{fill:#590000;}
	.st3{fill:#1A4F1A;}
	.st4{fill:#2D2D29;stroke:#21211E;stroke-width:2;stroke-miterlimit:10;}
	.st5{fill:#565656;}
	.st6{fill:#AAAAAA;}
	.st7{fill:#565656;stroke:#434432;stroke-width:2;stroke-miterlimit:10;}
	.st8{fill:#3A3A35;stroke:#2D2D29;stroke-width:2;stroke-miterlimit:10;}
	.st9{fill:url(#SVGID_1_);}
	.st10{display:none;fill:#6D6D6D;}
	.st11{fill:#FFFFFF;}
	.st12{display:none;fill:#FFFFFF;}
</style>
<g>
	<path class="st0" d="M554,57.5c0,0,6-3,8-5s7-6,11-8s11-9,13-12s5-7,8-9s9-4,12-4s8-1,9,0s4,5,5,5s2,0,3,0s3.1-0.7,4-1c3-1,4,6,5,6
		s3-2,5-1s-0.5,9.5-0.5,9.5s-0.5,5.5,0.5,7.5s5,4,8,5s7,0,7,2s-5,4-4,6s4,4,5,6s3,3,5,4s2,1,1,2s-4,2-5,4s-2,5-1,7s1,4,1,6s3,6,3,7
		s1,4-1,6s-2,3-4,5s-3,6-4,8s-4,4-7,6s-5,2-8,7s-1,8-2,9s-7,8-8,9s-2,5-4,11c-0.7,2.1-5,4-6,4s-3-3-5-4s-9,0-11-1s-4-4-6-4s-3,1-5-1
		s-5-6-6-7s-2-3-3-5c-1.3-2.5-14.6,5.2-17,10c-1,2-3-5-4-7s-3-2-6-8c-2-4-4-4-6-6s-6-8-7-11s0-17,2-20S549.5,82,549.5,82l3.4-1.7
		c0,0,0.6,0.7-0.4-5.3S554,57.5,554,57.5z"/>
	<path class="st0" d="M480.5,155c0,0,7,2,11,4s10,4,12,3s1-6.7,1.5-8.8c0.5-2.2-3.5-14.2-12.5-24.2s-13-14-23-14c-4,0-13,4-14,11
		s5,18,10,23S480.5,155,480.5,155z"/>
	<path class="st1" d="M502,162.8c-3,0-7.9-1.9-10.8-3.3c-3.8-1.9-10.3-3.8-10.9-4c-0.8-0.1-10.3-1.2-15.3-6.1
		c-4.8-4.8-11.2-15.9-10.1-23.4c1.1-7.5,10.6-11.4,14.5-11.4c10.2,0,14.3,4.1,23.4,14.2c8.9,9.9,13.2,22.1,12.6,24.6
		c-0.1,0.7-0.1,1.7-0.2,2.9c0,2.6,0,5.5-1.6,6.3C503.3,162.7,502.7,162.8,502,162.8z M469.5,115.5c-3.5,0-12.5,3.7-13.5,10.6
		s5.1,17.8,9.9,22.6c4.8,4.8,14.6,5.8,14.7,5.9h0.1c0.3,0.1,7.1,2,11.1,4c4.2,2.1,9.9,3.8,11.6,3c1.1-0.5,1.1-3.4,1.1-5.4
		c0-1.2,0-2.3,0.2-3.1c0.4-1.9-3.4-13.7-12.4-23.7C483.3,119.5,479.3,115.5,469.5,115.5z"/>
	<path class="st1" d="M613,160c-0.7,0-1.5-0.7-2.5-1.8c-0.9-0.9-1.8-1.8-2.7-2.3c-0.9-0.4-3.1-0.4-5.3-0.4c-2.4,0-4.6,0-5.7-0.6
		c-0.9-0.4-1.7-1.2-2.5-1.9c-1.1-1-2.3-2-3.3-2c-0.5,0-0.9,0.1-1.4,0.1c-1.2,0.2-2.4,0.4-4-1.3c-1.2-1.2-2.7-3.1-4-4.6
		c-0.9-1.1-1.6-2-2-2.4c-1.1-1.1-2-3-3.1-5.1c-0.1-0.2-0.5-0.2-0.7-0.2c-3.4,0-13.5,6.3-15.4,10.2c-0.3,0.6-0.7,0.6-0.9,0.6
		c-1,0-1.7-1.7-3-5.2c-0.4-1-0.7-1.9-1-2.4c-0.3-0.7-0.8-1.1-1.4-1.6c-1.1-1-2.7-2.5-4.6-6.4c-1.3-2.5-2.5-3.4-3.8-4.3
		c-0.7-0.5-1.4-0.9-2.1-1.6c-2.1-2.1-6.1-8.2-7.1-11.2s-0.1-17.2,2.1-20.4c2-3,10.2-13.1,10.5-13.5l0.2-0.1l3.3-1.6
		c0-0.4,0-1.5-0.6-4.8c-1-6,1.4-17.2,1.5-17.7l0.1-0.2l0.2-0.1c0.1,0,6-3,7.9-4.9c2.1-2.1,7.2-6.1,11.1-8.1
		c3.8-1.9,10.8-8.8,12.8-11.8s5.1-7.1,8.1-9.1c3.1-2.1,9.2-4.1,12.3-4.1c1,0,2.2-0.1,3.4-0.2c3.2-0.3,5.2-0.4,6,0.4
		c0.3,0.3,0.7,0.8,1.3,1.4c0.9,1.1,2.8,3.3,3.4,3.4h3c0.9,0,3-0.7,3.8-1c2.4-0.8,3.6,2.3,4.5,4.3c0.2,0.6,0.6,1.4,0.8,1.6
		c0.2,0,0.6-0.2,1-0.4c1.1-0.5,2.6-1.3,4.2-0.5c2.2,1.1,0.4,8-0.2,10.1c-0.1,1.4-0.3,5.6,0.5,7.1c0.9,1.7,4.5,3.7,7.7,4.7
		c1.1,0.4,2.4,0.5,3.5,0.5c2,0.1,3.8,0.3,3.8,1.9c0,1.1-1.1,2.1-2.2,3.1c-1.1,0.9-2.2,1.9-1.8,2.7c0.5,0.9,1.5,1.9,2.4,2.9
		c1,1,2.1,2.1,2.6,3.1c0.9,1.9,2.8,2.8,4.8,3.8c1.3,0.7,1.8,0.9,1.9,1.5c0.1,0.5-0.3,0.8-0.8,1.3c-0.4,0.4-1,0.8-1.7,1.2
		c-1.2,0.7-2.6,1.5-3.2,2.7c-0.5,1-2.1,4.4-1,6.6c1.1,2.1,1.1,4.2,1.1,6.2c0,1,1,2.9,1.8,4.3s1.2,2.2,1.2,2.7c0,0.2,0,0.4,0.1,0.7
		c0.2,1.3,0.5,3.8-1.2,5.6c-1,1-1.4,1.7-1.9,2.4c-0.5,0.8-1,1.5-2.1,2.6c-1.3,1.3-2.2,3.7-3,5.6c-0.3,0.9-0.6,1.7-1,2.3
		c-1.1,2.1-4,4.1-7.2,6.2c-0.8,0.5-1.4,0.9-2.1,1.2c-2,1.1-3.6,1.9-5.7,5.6c-1.8,3.1-1.7,5.3-1.6,6.8c0,1,0.1,1.7-0.4,2.3
		c-0.5,0.5-2.3,2.5-4,4.5c-1.8,2.1-3.5,4-4,4.5c-0.6,0.6-1.4,3-2.4,6.3c-0.4,1.3-0.9,2.9-1.5,4.5C618.7,158,614.2,160,613,160z
		 M591,150c1.4,0,2.7,1.2,3.9,2.3c0.8,0.7,1.5,1.4,2.3,1.8c0.9,0.4,3.1,0.4,5.3,0.4c2.4,0,4.6,0,5.7,0.6c1.1,0.5,2.1,1.6,3,2.5
		c0.6,0.6,1.5,1.5,1.8,1.5c0.8,0,4.9-1.8,5.5-3.7c0.6-1.7,1-3.2,1.5-4.5c1.2-3.7,1.9-5.9,2.7-6.7c0.5-0.5,2.3-2.5,4-4.5
		c1.8-2.1,3.5-4,4-4.5c0.2-0.2,0.2-0.8,0.1-1.5c-0.1-1.6-0.2-4.1,1.8-7.4c2.3-3.9,4.1-4.8,6.1-6c0.6-0.4,1.3-0.7,2-1.2
		c2.9-1.9,5.9-3.9,6.8-5.8c0.3-0.6,0.6-1.4,0.9-2.2c0.8-2,1.7-4.4,3.2-5.9c1-1,1.4-1.7,1.9-2.4c0.5-0.8,1-1.5,2.1-2.6
		c1.4-1.4,1.1-3.4,0.9-4.8c-0.1-0.4-0.1-0.7-0.1-0.9c0-0.3-0.6-1.4-1.1-2.2c-0.9-1.6-1.9-3.5-1.9-4.8c0-2,0-3.9-0.9-5.8
		c-1.2-2.5,0.3-6,1-7.4s2.3-2.4,3.6-3.1c0.6-0.4,1.2-0.7,1.5-1c0.2-0.2,0.4-0.4,0.5-0.5c-0.2-0.2-0.7-0.4-1.3-0.7
		c-2-1-4.1-2.1-5.2-4.2c-0.5-0.9-1.5-1.9-2.4-2.9c-1-1-2.1-2.1-2.6-3.1c-0.7-1.4,0.8-2.7,2.1-3.9c0.9-0.8,1.9-1.7,1.9-2.4
		c0-0.7-0.9-0.8-2.9-0.9c-1.2-0.1-2.5-0.2-3.8-0.6c-2.5-0.8-7.1-2.9-8.3-5.3c-1.1-2.1-0.6-7.5-0.6-7.8c1.2-4,1.8-8.5,0.8-9
		c-1.1-0.6-2.3,0-3.3,0.5c-0.6,0.3-1.1,0.5-1.5,0.5c-0.7,0-1-0.8-1.6-2.3c-0.9-2.3-1.9-4.2-3.2-3.8c-1,0.3-3.1,1-4.2,1h-3
		c-0.8,0-1.9-1.2-4.2-3.8c-0.5-0.6-0.9-1.1-1.2-1.4c-0.5-0.5-3.2-0.3-5.2-0.1c-1.2,0.1-2.5,0.2-3.5,0.2c-2.9,0-8.8,2-11.7,3.9
		s-5.9,5.9-7.9,8.9c-2.1,3.1-9.1,10.1-13.2,12.2c-3.9,1.9-8.8,5.8-10.9,7.9c-1.8,1.8-6.8,4.4-7.9,5c-0.3,1.7-2.3,11.7-1.4,17.1
		c0.9,5.5,0.6,5.7,0.2,5.9l-0.4,0.2l0,0l-3,1.5c-0.8,1-8.5,10.6-10.4,13.4c-1.8,2.8-2.9,16.6-1.9,19.6c0.9,2.8,4.8,8.8,6.9,10.8
		c0.6,0.6,1.3,1,1.9,1.5c1.4,0.9,2.8,1.9,4.2,4.6c1.9,3.7,3.3,5.1,4.4,6.1c0.6,0.6,1.2,1.1,1.6,1.9c0.3,0.6,0.6,1.5,1,2.5
		c0.5,1.4,1.5,4,2.1,4.5l0,0c2.2-4.3,12.6-10.8,16.3-10.8l0,0c1,0,1.4,0.4,1.6,0.8c1,1.9,2,3.9,2.9,4.9c0.4,0.4,1.2,1.4,2.1,2.5
		c1.2,1.5,2.8,3.4,3.9,4.5c1.3,1.3,2,1.2,3.1,1C589.9,150.1,590.4,150,591,150z"/>
</g>
<path id="Роза_1_" class="st2" d="M657.6,72c0.7-0.4,1.3-0.8,1.7-1.2c0.5-0.5,0.9-0.9,0.8-1.3c-0.1-0.5-0.6-0.8-1.9-1.5
	c-2-1-3.9-1.9-4.8-3.8c-0.5-1.1-1.6-2.1-2.6-3.1s-1.9-1.9-2.4-2.9c-0.4-0.7,0.7-1.7,1.8-2.7s2.2-2,2.2-3.1c0-1.7-1.9-1.8-3.8-1.9
	c-1.1-0.1-2.4-0.2-3.5-0.5c-3.2-1.1-6.9-3-7.7-4.7c-0.8-1.5-0.6-5.7-0.5-7.1c0.6-2.1,2.4-9,0.2-10.1c-1.6-0.8-3.1,0-4.2,0.5
	c-0.4,0.2-0.8,0.4-1,0.4c-0.2-0.2-0.5-1-0.8-1.6c-0.8-2-2.1-5.1-4.5-4.3c-0.9,0.3-2.9,1-3.8,1h-3c-0.6-0.1-2.5-2.3-3.4-3.4
	c-0.5-0.6-1-1.1-1.3-1.4c-0.8-0.8-2.8-0.7-6-0.4c-1.2,0.1-2.4,0.2-3.4,0.2c-3.1,0-9.2,2-12.3,4.1c-3,2-6.1,6.1-8.1,9.1
	c-2,3.1-9,9.9-12.8,11.8c-4,2-9,6-11.1,8.1c-1.9,1.9-7.8,4.9-7.9,4.9l-0.2,0.1l-0.1,0.2c-0.1,0.5-2.5,11.7-1.5,17.7
	c0.5,3.3,0.6,4.4,0.6,4.8l-3.3,1.6l-0.2,0.1c-0.3,0.4-8.5,10.6-10.5,13.5c-2.2,3.3-3.1,17.4-2.1,20.4s5,9.1,7.1,11.2
	c0.7,0.7,1.4,1.2,2.1,1.6c1.3,0.9,2.6,1.7,3.8,4.3c1.9,3.9,3.5,5.3,4.6,6.4c0.6,0.6,1.1,1,1.4,1.6c0.3,0.5,0.6,1.4,1,2.4
	c1.3,3.5,2.1,5.2,3,5.2c0.2,0,0.6-0.1,0.9-0.6c2-3.9,12.1-10.2,15.4-10.2c0.2,0,0.6,0,0.7,0.2c1,2.1,2,4.1,3.1,5.1
	c0.4,0.4,1.2,1.3,2,2.4c1.2,1.5,2.8,3.4,4,4.6c1.6,1.6,2.8,1.5,4,1.3c0.4-0.1,0.9-0.1,1.4-0.1c1,0,2.2,1,3.3,2
	c0.8,0.7,1.7,1.5,2.5,1.9c1.1,0.6,3.3,0.6,5.7,0.6c2.2,0,4.4,0,5.3,0.4c0.9,0.5,1.9,1.4,2.7,2.3c1,1,1.8,1.8,2.5,1.8
	c1.2,0,5.7-2,6.5-4.3c0.6-1.7,1-3.2,1.5-4.5c1-3.3,1.8-5.6,2.4-6.3c0.5-0.5,2.2-2.5,4-4.5c1.7-2,3.5-4,4-4.5s0.5-1.3,0.4-2.3
	c-0.1-1.5-0.2-3.8,1.6-6.8c2.2-3.7,3.8-4.5,5.7-5.6c0.7-0.4,1.3-0.7,2.1-1.2c3.1-2.1,6.1-4.1,7.2-6.2c0.3-0.6,0.6-1.4,1-2.3
	c0.7-1.9,1.6-4.3,3-5.6c1-1,1.6-1.8,2.1-2.6c0.5-0.8,1-1.5,1.9-2.4c1.8-1.8,1.4-4.3,1.2-5.6c0-0.3-0.1-0.6-0.1-0.7
	c0-0.5-0.4-1.3-1.2-2.7c-0.8-1.5-1.8-3.3-1.8-4.3c0-2,0-4.1-1.1-6.2s0.5-5.5,1-6.6C655,73.6,656.5,72.7,657.6,72z M637.7,47.2
	c1.9,1.7,5.1,3.1,7.1,3.8c1.2,0.4,2.6,0.5,3.8,0.6c2,0.1,2.9,0.3,2.9,0.9c0,0.7-1,1.6-1.9,2.4c-1,0.9-2.1,1.9-2.2,3
	c-0.8-0.7-1.8-1.3-2.9-1.3c-1.1,0-2.6-0.3-3.8-0.6c-0.9-0.2-1.7-0.4-2.2-0.4h-2.7c-0.8-1.4-4.4-7.5-8.1-9.9c0.8-0.1,1.4-0.1,1.8-0.1
	C630.9,45.5,635.5,46.6,637.7,47.2z M630.2,64.7c-1.9-3.3-4-5.3-6.6-6.2c-2.6-0.9-6.2-0.3-7.4-0.1c0-0.3,0.2-0.7,0.6-1.1
	c0.7-0.7,2-1.4,3.3-2.2c2.4-1.4,5.1-2.9,5.8-5c0.4-1.1,0-2.3-0.3-3.2c-0.1-0.4-0.3-1-0.3-1.1c0.1,0,0.3,0,0.4,0
	c4.1,1.3,9.1,10.2,9.3,10.4c0,0.1,1.7,3.5,1.9,7C634.7,63.3,632.4,63.9,630.2,64.7z M620.4,71.5c0.2,0,2.5,0.5,5.1,1
	c1.2,0.4,2.5,1,3.7,1.9c1.9,1.4,2.8,1.6,3.5,1.7c0.8,0.1,1.4,0.2,3.4,2.3c1.8,1.8,2.7,4,2.5,6.1c-0.2,1.7-1,3.2-2.4,4.1
	c-2.3,1.5-7.3,1.2-9.1,1l0.2-0.5c0.5-1.3,1.6-3.4,3.5-4.7c0.2-0.1,0.3-0.4,0.2-0.6s-0.3-0.4-0.5-0.4h-8c-1.4,0-2-0.4-2.8-0.8
	c-0.9-0.5-2-1.2-4.2-1.2c-1,0-1.8,0-2.6-0.9c-0.2-0.2-0.5-0.3-0.8-0.2c-0.2,0.1-0.5,0.3-0.7,0.7c-0.2-0.7-0.6-1.6-1.5-2.5
	c-1-1-2.5-1.3-3.9-1.4c0.9-0.3,1.7-0.7,2.6-1c0.8-0.3,1.7-0.6,2.5-1c0,0,0,0,0.1,0l0.1-0.1c3.2-1.2,6.5-2.6,8.9-3.9
	C620.2,71.4,620.3,71.5,620.4,71.5z M614,127.2C614.1,127.2,614.1,127.2,614,127.2c0.9,1.7,0.1,7.3-1,11.7c-0.9,3.7-3.7,6.6-5.5,6.6
	s-6.5,0-6.5-2.5c0-3.2-1.1-7.4-4.3-8.5c-2.8-0.9-5.7-5.7-5.8-5.8c0-0.1-4.9-6-5.9-12.8c-1-6.7,0.9-10.7,1-10.7
	c0.1-0.2,0-0.5-0.2-0.6c-0.1-0.1-0.3-0.1-0.5-0.1c-0.2-0.2-0.7-1-1.3-4.6c-0.6-3.9-0.1-5.3,0.2-5.8c0.1,0.1,0.2,0.2,0.3,0.4
	c1,1.1,2,2.1,2.5,3.7c1.1,3.2,3,9.1,5.1,11.2c0,0,0.1,0.1,0.2,0.2c0.1,1.6,0.4,2.9,0.7,3.6c0.7,1.4,3.2,5.2,4.9,5.4
	c0.1,0,0.1,0,0.2,0c0.3,0,0.5-0.1,0.7-0.3c0.9-0.9,1.1-1.8,0.7-3.7c1.4,2.5,5.4,8.6,12.7,11.8C612.9,126.7,613.5,127,614,127.2z
	 M615.5,59.7c0.2,0.7,0.4,1.2-0.4,2c-0.7,0.7-1,0.6-1.6,0.4c-0.8-0.3-2-0.7-4.3,0.5c-2.4,1.2-4.5,3.1-6.1,4.6c-1.1,1-2,1.9-2.8,2.3
	c-1.1,0-7.7,0-13.7,2.8c-0.7-1.1-1.7-1.7-2.8-1.7h-0.1c-1.8,0-3.7,1.7-5.7,4.9c-1.1,0.1-3.5,0-4.4-1.3c-0.7-0.9-0.6-2.2,0.2-4.1
	c3.4-7.9,8.1-12.6,13.6-13.7c3.2-0.6,7.2-3.1,9.3-5.1c0.5-0.5,1-1,1.5-1.7c1.8-2,4.1-4.5,6.3-5.2c1.4-0.5,2.2,0,3.1,0.5
	c0.8,0.5,1.8,1,2.9,0.4c1-0.5,1.5-1.2,2-1.8c0.5-0.7,0.9-1.2,1.8-1.2c1,0,1.8,0.7,2.6,1.4c0.6,0.5,1.3,1.1,2.1,1.5
	c1.1,0.5,3.1,0.6,5.1,0.4c0,0.4,0.2,1,0.3,1.4c0.3,0.8,0.6,1.8,0.3,2.6c-0.6,1.7-3.1,3.2-5.3,4.4c-1.4,0.8-2.7,1.6-3.5,2.4
	C614.9,57.9,615.3,58.9,615.5,59.7z M593.6,92.4c0.2,0.3,0.3,0.6,0.5,0.9c0.9,1.8-0.1,4.8-1,7.6c-0.6,1.7-0.8,4.5-0.8,7.1
	c-1.7-2.4-3.4-7.5-4.3-10.1c-0.6-1.7-1.7-2.9-2.7-4c-0.2-0.2-0.4-0.5-0.6-0.7l0,0c-0.6-0.7-1.2-1.4-1.7-2.3
	c-0.1-0.1-0.1-0.2-0.2-0.4c0,0,0.1,0,0.1-0.1c0.1-0.1,7.7-7.6,12.7-10.3c-0.5,1.6-0.8,3.2-0.9,4.5c-0.1,0.9-0.2,1.9-0.5,2.1
	C591.7,89.1,592.7,90.7,593.6,92.4z M582.4,89.2c-0.3-1.9,0.6-3.2,1.5-4.5c0.4-0.5,0.7-1,1-1.5c0.6-1.1,0.6-2.4,0.6-3.8
	s0-2.8,0.5-4.2c0.3-0.9,0.5-1.4,0.6-1.6l0.1-0.1c4.4-2.2,9.3-2.8,11.9-2.9c-2.9,1.9-7.8,5.6-9.5,8.2
	C587.4,81.3,583.5,87.4,582.4,89.2z M578.9,76.2c2.2-3.8,3.9-4.6,4.9-4.6c0,0,0,0,0.1,0c0.9,0,1.6,0.7,1.9,1.2c-0.2,0.4-0.4,1-0.8,2
	c-0.5,1.6-0.5,3.1-0.5,4.5c0,1.3,0,2.5-0.4,3.4c-0.2,0.4-0.6,0.9-0.9,1.4c-1.2,1.7-2.8,3.7-1.1,7.1c0.4,0.8,0.9,1.5,1.5,2.2
	c-0.6,0.7-1.2,2.4-0.5,6.7c0.6,3.8,1.3,4.9,1.8,5.3c-0.5,1.4-1.6,5.1-0.8,10.7c0.7,4.9,3.3,9.2,4.8,11.5c-1.1,0-2.1,0.8-3.1,1.7
	c-1.3,1.1-2.9,2.4-5.3,3.3c-1.6,0.5-3,0.5-4.2-0.1c-1.8-1-2.5-3.1-2.6-3.6c-0.3-1.2-0.5-2.5-0.5-3.8c0-2.6,1.2-4.4,2.6-6.5
	c1.6-2.4,3.4-5.1,3.4-9.5c0-2.1-0.8-4.4-1.5-6.7c-0.7-2.2-1.5-4.4-1.5-6.3c0-0.6,0-1.3,0-2.1C575.8,89.5,575.6,82.1,578.9,76.2z
	 M598.1,117.7c-0.9-0.1-3.1-2.9-4.1-4.9c-0.9-1.9-0.9-8.7,0-11.6c1-3,2.1-6.2,1-8.4c-0.2-0.3-0.3-0.6-0.5-0.9
	c-0.9-1.6-1.5-2.6,0.4-4.5c0.5-0.5,0.6-1.3,0.7-2.7c0.3-2.3,0.7-5.8,3.3-8.3l0.8-0.8c1.9-2,3.4-3.4,5.3-3.4c1.4,0,3,0.7,5.2,2.5
	c-0.7,0.3-1.4,0.5-2,0.8c-5.5,2.1-8.6,3.3-9.2,4.4c-1.2,2.4-1,5.2-0.9,7.6c0.1,1.7,0.2,3.3-0.2,4.4c-1,3-1.8,13.2,0,20.3
	C599,116.1,598.9,116.9,598.1,117.7z M598.2,96.4c0.6,0,3.3,0.3,4.9,2c1.1,1.1,3.1,2.1,7.1,4.1c3.5,1.7,3.7,5.1,3.7,7.1
	c-5.3,0.6-14.3-3.8-16-4.6C597.9,101.9,598,98.8,598.2,96.4z M610.7,101.6c-3.9-2-5.9-3-6.9-3.9c-1.9-1.9-4.7-2.2-5.5-2.3
	c0.2-1.4,0.4-2.5,0.6-3.2c0.5-1.4,0.3-3,0.2-4.8c-0.2-2.4-0.3-4.9,0.8-7.1c0.2-0.4,1.4-1,2.9-1.7c0.5-0.1,4.6-0.9,6.3,0.8
	c1.3,1.3,1.3,2.3,1.4,3.1c0,0.3,0,0.5,0.1,0.8c-0.5,1.8-1,4.7-1.6,8.7c-0.6,3.8,0.7,6.1,2.2,8.8c0.3,0.5,0.6,1.1,0.9,1.7
	C611.7,102.1,611.2,101.8,610.7,101.6z M615,106.9c-0.8-2.8-1.9-4.9-2.9-6.7c-1.5-2.6-2.6-4.7-2-8.1c0.4-2.3,0.8-5.1,1.3-7.2
	c0.7,1.9,1.7,4.8,1.7,6.1c0,1.5,0.1,4.6,1,8.1c0.8,3.3,2,4.4,2.5,4.7c0.2,0.5,0.3,0.9,0.6,1.4c1.2,2.4,2.3,3.6,3.7,3.9s3-0.2,5-1.8
	c1-0.7,1.6-1.5,2.1-2.2c0.1,0,0.3-0.1,0.4-0.2c0.2-0.1,0.3-0.3,0.4-0.5c0.1,0.1,0.2,0.4,0.4,0.7c1.6,3.2-0.4,5.8-2.9,9.1
	c-0.3,0.4-0.7,0.9-1,1.4c-0.3,0.3-2.8,2.6-5.3,0.9s-2.8-2.5-4.2-7.7L615,106.9z M622.5,97.5c-0.4,0-1.1,0.2-1.6,1.4
	c-0.6,1.6-0.5,4.5,0.4,5.4c0.4,0.4,0.9,0.4,1.4,0.2c0.6-0.3,1.6,0,2.5,0.4c0.5,0.2,0.9,0.3,1.3,0.4c-0.4,0.4-0.8,0.9-1.4,1.4
	c-1.8,1.3-3.1,1.8-4.2,1.6c-1.1-0.3-2-1.3-3.1-3.4c-1.4-2.8-1.3-6.1-0.3-7.6c0.2-0.3,0.5-0.7,0.9-0.7c2.2,0,4.4-3,5.5-7.4
	c0.3-1.1,0.7-1.8,1.3-2c0.2-0.1,0.4-0.1,0.6-0.1c0.4,0,0.8,0.1,1,0.2l-0.5,1.4c-0.3,0.7-0.4,1.2-0.4,1.2V90c0,0.2,0,2.2,1,5.1
	s1,5.9,1,7.8c0,0.2,0,0.3,0,0.5c-0.2,0.2-0.4,0.5-0.7,0.8l0,0l0,0c-0.4,0-1.1-0.2-1.7-0.4c-1.1-0.4-2.3-0.8-3.3-0.3
	c-0.2,0.1-0.2,0-0.3,0c-0.5-0.5-0.7-2.8-0.2-4.3c0.1-0.2,0.3-0.8,0.7-0.8c0.3,0,0.5-0.2,0.5-0.5S622.8,97.5,622.5,97.5z M625,86.2
	c-0.9,0.4-1.6,1.3-1.9,2.7c-1,3.8-2.9,6.6-4.5,6.6c-0.5,0-1.2,0.2-1.7,1.1c-0.7,1.1-1,3-0.8,5.1c-0.3-0.6-0.7-1.5-1-2.8
	c-0.9-3.6-1-6.7-1-7.9c0-2.1-1.9-6.9-2.3-7.8c0.2-0.8,0.4-1.4,0.6-1.7c1.1,1,2.2,1,3.2,1c2,0,2.8,0.5,3.7,1c0.8,0.5,1.7,1,3.3,1h6.6
	c-0.6,0.6-1.1,1.3-1.6,1.9C627.1,86.2,626,85.8,625,86.2z M627,114.9c2.6-3.4,4.9-6.3,3-10.2c-0.3-0.7-0.6-1.2-1-1.4
	c0-0.1,0-0.3,0-0.4c0-2,0-5.1-1-8.2c-0.7-2-0.9-3.5-0.9-4.3c1.8,0.2,7.1,0.6,9.7-1.2c1.6-1.1,2.6-2.8,2.8-4.9
	c0.2-2.4-0.7-4.9-2.7-6.9c-2.3-2.3-3.1-2.4-4-2.5c-0.6-0.1-1.4-0.2-3.1-1.5c-0.2-0.2-0.5-0.4-0.7-0.5c1.5,0.2,2.8,0.4,3.4,0.4
	c1.9,0,8.8,2,10.8,2.9c1.9,0.9,3.7,2.8,3.7,4.6c0,6.7,0.4,10.8,1.1,12.2c0.2,0.4,0.4,0.8,0.6,1.2c0.8,1.4,0.9,1.8,0.4,2.2
	c-0.5,0.5-1.1,1.3-1.6,2.1c-0.5,0.7-1,1.5-1.4,1.9c-0.5,0.5-0.7,1.4-1,2.6c-0.5,1.9-1.2,4.6-3,6.4c-3.4,3.4-10.4,5.6-15.6,5.8
	C626.7,115.3,626.8,115.1,627,114.9z M611.3,74.2c-6.5-5.3-9-2.8-12.4,0.7l-0.8,0.8c-0.9,0.9-1.6,2-2.1,3
	c-3.4,1.5-10.1,7.9-13.1,10.9c1.6-2.6,5.8-8.5,6.9-10.2c1.9-2.9,8.7-7.8,10.8-8.8c0.9-0.4,1.9-1.4,3.1-2.5c1.6-1.5,3.6-3.3,5.9-4.5
	c1.9-1,2.8-0.7,3.5-0.4c0.9,0.3,1.6,0.4,2.6-0.7c1.2-1.2,0.9-2.2,0.6-2.9c1.1-0.2,4.5-0.7,6.8,0.1c2.3,0.8,4.2,2.6,6,5.6
	c-2.9,1.2-5.7,2.9-8.1,4.5C618.9,71.2,615.1,72.7,611.3,74.2z M554.4,57.8c1.1-0.6,6.1-3.1,7.9-5c2.1-2.1,7-6,10.9-7.9
	c4.1-2,11.1-9,13.2-12.2c2-3,5-6.9,7.9-8.9c2.9-1.9,8.8-3.9,11.7-3.9c1,0,2.3-0.1,3.5-0.2c2-0.2,4.7-0.4,5.2,0.1
	c0.3,0.3,0.7,0.8,1.2,1.4c2.2,2.6,3.3,3.8,4.2,3.8h3c1.1,0,3.2-0.7,4.2-1c1.4-0.5,2.3,1.5,3.2,3.8c0.6,1.4,0.9,2.3,1.6,2.3
	c0.5,0,0.9-0.2,1.5-0.5c1-0.5,2.1-1.1,3.3-0.5c1,0.5,0.4,5-0.8,9c0,0.2-0.5,5.7,0.6,7.8c0,0.1,0.1,0.1,0.1,0.2
	c-1.5-0.4-5.5-1.4-7.1-1.4c-0.6,0-1.5,0.1-2.5,0.2c-2.4,0.2-6,0.5-7.3-0.1c-0.7-0.4-1.3-0.9-1.9-1.4c-0.9-0.8-1.9-1.7-3.3-1.7
	c-1.4,0-2,0.8-2.6,1.6c-0.4,0.5-0.9,1.1-1.6,1.5c-0.7,0.3-1.1,0.1-2-0.4c-1-0.5-2.1-1.2-3.9-0.6c-2.4,0.8-4.8,3.4-6.7,5.5
	c-0.5,0.6-1.1,1.2-1.5,1.6c-1.9,1.9-5.7,4.3-8.7,4.9c-4.1,0.8-9.9,4-14.4,14.3c-0.9,2.2-1,3.9-0.1,5.1c0.7,0.9,3,1.4,4,1.6l-2,0.3
	c-2.9,6.7-13.3,10.2-17,10.2c-3.3,0-4.4-5.9-4.5-6.5c0.2-0.4,0.1-1.7-0.5-5.6C552.1,69.5,554.1,59.5,554.4,57.8z M559.6,147.3
	C559.5,147.3,559.5,147.3,559.6,147.3c-0.6-0.5-1.5-3.1-2.1-4.5c-0.4-1-0.7-1.9-1-2.5c-0.4-0.8-1-1.3-1.6-1.9
	c-1.1-1-2.5-2.3-4.4-6.1c-1.4-2.8-2.8-3.7-4.2-4.6c-0.7-0.4-1.3-0.9-1.9-1.5c-2-2-5.9-8-6.9-10.8c-1-3,0.1-16.8,1.9-19.6
	c1.9-2.8,9.6-12.4,10.4-13.4l2.8-1.4c0.3,1.6,1.6,7,5.4,7c4.5,0,14.8-3.7,17.9-10.6l1.7-0.7c-3,5.9-2.8,13-2.6,17.3c0,0.8,0,1.5,0,2
	c0,2.1,0.8,4.4,1.5,6.7c0.7,2.2,1.5,4.4,1.5,6.3c0,4.1-1.6,6.6-3.2,9c-1.4,2.1-2.8,4.1-2.8,7c0,4.9,2.5,9.7,3.6,11.5
	C571.7,136.8,561.7,143,559.6,147.3z M632.6,126.2c-2,3.3-1.9,5.8-1.8,7.4c0,0.7,0.1,1.3-0.1,1.5c-0.5,0.5-2.2,2.5-4,4.5
	c-1.7,2-3.5,4-4,4.5c-0.8,0.8-1.5,3-2.7,6.7c-0.4,1.3-0.9,2.9-1.5,4.5c-0.6,1.9-4.8,3.7-5.5,3.7c-0.3,0-1.2-0.9-1.8-1.5
	c-0.9-0.9-1.9-1.9-3-2.5s-3.3-0.6-5.7-0.6c-2.2,0-4.4,0-5.3-0.4c-0.7-0.4-1.5-1.1-2.3-1.8c-1.3-1.1-2.5-2.3-3.9-2.3
	c-0.6,0-1.1,0.1-1.5,0.1c-1.1,0.2-1.9,0.3-3.1-1c-1.2-1.2-2.7-3-3.9-4.5c-0.9-1.1-1.7-2-2.1-2.5c-0.9-0.9-1.9-2.9-2.9-4.9
	c-0.1-0.2-0.3-0.4-0.5-0.5l0,0c0,0-1.1-1.7-2.1-4.1c0.3,0.2,0.5,0.4,0.9,0.6c0.8,0.4,1.6,0.6,2.6,0.6c0.8,0,1.6-0.1,2.4-0.4
	c2.7-0.9,4.4-2.4,5.7-3.4c1.8-1.6,2.5-2,3.8-0.7c0.4,0.6,3.2,5.2,6.2,6.2c2.7,0.9,3.7,4.6,3.7,7.5c0,3.5,5.4,3.5,7.5,3.5
	c2.2,0,5.4-3,6.5-7.4c0.2-0.9,2-8.1,1.2-11.4c3.3,1.3,6,2,8.2,2c2.4,0,4.4-0.8,6.4-2.3c1.1-0.8,2.4-1.8,3.7-2.7
	C633.2,125.2,632.9,125.7,632.6,126.2z M653.5,87.5c0,1.3,1,3.2,1.9,4.8c0.4,0.8,1.1,1.9,1.1,2.2c0,0.2,0,0.5,0.1,0.9
	c0.2,1.3,0.5,3.3-0.9,4.8c-1,1-1.6,1.8-2.1,2.6c-0.5,0.8-1,1.5-1.9,2.4c-1.5,1.5-2.4,3.9-3.2,5.9c-0.3,0.8-0.6,1.6-0.9,2.2
	c-0.9,1.9-3.9,3.9-6.8,5.8c-0.7,0.5-1.4,0.8-2,1.2c-0.3,0.1-0.5,0.3-0.7,0.4c-0.6,0.3-6.6,4.3-8.7,5.9c-4,3-8,2.7-16.5-1.1
	c-8.7-3.9-12.7-11-13.7-14c-0.1-0.3-0.2-0.6-0.3-0.8c-0.3-1.4-0.5-3-0.6-4.6c2.4,1.2,9.6,4.5,14.8,4.5c0.6,0,1.1,0,1.6-0.1
	c0.1,0,0.3-0.1,0.3-0.2c1.2,4.3,1.7,5.4,4.3,7.1c0.8,0.5,1.7,0.8,2.5,0.8c1.7,0,3.2-0.9,4-1.7c5.4-0.1,13.2-2.2,17.2-6.1
	c2-2,2.7-4.8,3.2-6.8c0.3-1,0.5-1.9,0.8-2.2c0.5-0.5,1.1-1.3,1.6-2.1c0.5-0.7,1-1.5,1.4-1.9c1-1,0.4-2.1-0.3-3.4
	c-0.2-0.3-0.4-0.7-0.6-1.2c-0.4-0.7-0.9-3.2-0.9-11.8c0-2.3-2.2-4.4-4.3-5.4c-2.1-1.1-9.2-3.1-11.2-3.1c-1,0-3.9-0.5-6.7-1
	c-1.7-0.6-3.3-0.9-4.3-0.9c0.1,0,0.2-0.1,0.2-0.1c2.5-1.6,5.4-3.4,8.5-4.6l0,0l0,0c4.7-1.8,9.6-2.4,13.9,0.6
	c4.6,3.3,7.8,11.7,7.8,11.8l0.2-0.1c-0.2,1.2-0.2,2.5,0.3,3.6C653.5,83.6,653.5,85.5,653.5,87.5z M652.5,76.8
	c-1-2.4-3.9-8.4-7.8-11.2c-2.2-1.5-4.5-2.2-6.8-2.3c-0.2-2.8-1.2-5.5-1.7-6.8h2.2c0.4,0,1.1,0.2,1.9,0.4c1.3,0.3,2.8,0.6,4.1,0.6
	c1.1,0,2.6,1.2,3.7,2.2c0.5,0.7,1.2,1.4,1.9,2.1c1,1,1.9,1.9,2.4,2.9c1.1,2.1,3.2,3.2,5.2,4.2c0.6,0.3,1.1,0.6,1.3,0.7
	c-0.1,0.1-0.3,0.3-0.5,0.5c-0.3,0.3-0.9,0.7-1.5,1c-1.3,0.7-2.9,1.7-3.6,3.1C653.3,74.8,652.9,75.7,652.5,76.8z"/>
<path id="Бутон_1_" class="st2" d="M501.7,162.1c-2.7,0-6.7-2-10.1-3.7l-0.9-0.4c-3.8-1.9-11.2-1.5-11.2-1.4l-0.1-1
	c0.3,0,7.7-0.5,11.8,1.6l0.9,0.4c3.5,1.8,9.5,4.8,11.1,3.2c0.3-0.3,0.3-1.3,0.3-2.3c0-1.7,0-3.8,1.2-5.8c0.1-0.2,0.2-0.3,0.2-0.4
	c-0.3,0.1-0.7,0.2-1,0.4c-1.5,0.6-3.6,1.4-5.5,1c-2.9-0.7-5.2-5.1-7.6-9.7c-1.2-2.2-2.4-4.5-3.7-6.5c-3.4-5.1-8.1-10.4-17.7-11.8
	c-6.8-1-8.1-2-8.3-2.1l0.7-0.7c0,0,1.2,0.9,7.7,1.9c9.9,1.4,14.8,7,18.3,12.2c1.3,2,2.6,4.3,3.7,6.6c2.3,4.4,4.5,8.6,7,9.2
	c1.5,0.4,3.5-0.4,4.9-0.9c1.2-0.5,1.9-0.8,2.3-0.3c0.4,0.4,0,1.1-0.3,1.8c-1,1.8-1,3.7-1,5.3c0,1.3,0,2.4-0.6,3
	C503.3,161.9,502.6,162.1,501.7,162.1z"/>
<g id="Стебли_1_">
	<g>
		<path class="st3" d="M41,186.5c-18-4-34.9-14.4-36.2-15.2c-0.7-0.4-1-1.3-0.6-2s1.3-1,2-0.6c0.2,0.1,15.2,8.2,33.4,13.5
			c0.8,0.2,4.4-3.7,4.4-3.7s-0.5,4.7,0.2,4.9c7.3,1.8,19.5,2.1,26.8,2.1c14,0,38-2,57-8c14.7-4.6,25.4-6.3,35.8-11.8
			c7.1-3.8,13.2-8.3,19.2-12.2c0.6-0.4,1-5,1-5s2.2,3.7,2.7,3.4c4-2.6,10.7-7.9,14.3-10.4c9.2-6.3,15-9.4,23.8-13.8
			c5.1-2.6,12.5-7.7,21.1-13.7c21.2-14.8,50.3-35,75.4-37.5c26.9-2.7,54.8,2.3,82.5,14.6c0.3,0.1,2.2-1.6,2.2-1.6s-0.6,2.3-0.3,2.5
			c6.3,3.5,12.3,6.6,17.3,9.5c12,7,17,10,24,10c1,0,5-2,10,0c3.3,1.3,4,3,6,4c4-3,10.4-3.5,13-3c5,1,18.8,7.8,22,10
			c1.7,1.1,15,8,21,12c-1.7-0.2-11.5-4.2-20-8c-4.6-2-7-5-11-5c0,2,7,4,10,9c7.2,11.9,7,21,16,33c-2.3-0.7-6-3-9.4-7.7
			c1.2-5.7,0.3-6.5-1.6-9.3c-1.8-2.7-4.6-7.3-8-11c1-5-17.8-18.9-21-20c3,3,8,8,9,9s5,3,9,8c0,0,2,2,3,3c1.9,2.1,5,6,6,8
			c0,0-0.9-1-1-1c-3-1-14.4-12.6-15-13c-7-5-25.4-5.7-27-6c0,3,3.1,3.3,5,5s4,4,7,4c-3,3-8.3,2.9-11,2c0.5,3.1,3,9,7,15
			c2.4,3.5,14.3,5.3,15,6c1,1,4,4,8,7c-4,0-9-4-12-5c3,3,14,18,15,24c-5-10-21-25-25-27c-1,4-1,5-3,9c-1-5,0-14-7-20
			c-3.4-2.9-3-8-3-8c-2-2-9-4-12-8c-3.5-4.7-0.6-9-1-9.5c-2.9-4.1-7-6.4-12-9.5c-0.3-0.2-1,2-1,2s-0.8-2.9-1-3
			c-6.5-4-13.4-7.9-20-11c-28.6-13.6-57.5-19.8-85.4-17c-24.4,2.4-53.1,22.4-74,37c-8.7,6-16.1,11.2-21.5,13.9
			c-8.6,4.3-15.6,9.7-25.2,16.2c-9.9,6.7-21,15-35.8,21.8c-10.2,4.7-21,9.7-35.2,13.2c-6.1,1.5-14.9,3.9-21,5c-0.8,0.1-1,4-1,4
			s-4.1-4.2-5-4C82.8,189.8,59,190.5,41,186.5z"/>
		<path class="st3" d="M553,65.5c-18.5-9.8-39.7-15-40-15v-4c0.3,0,2.7,0.4,4.9,1c0.6,0.2,4.1-3,4.1-3s-0.6,3.9,0.1,4.1
			c8.3,2.3,21.2,7.4,30.9,11.9V65.5z"/>
		<path class="st3" d="M564,31.5c0,0,1,1,3,4s6,9,6,9l-5,3c0,0-2-3.9-2-8c0-2-2-3-2-5C564,33.5,564,31.5,564,31.5z"/>
		<path class="st3" d="M552,68.5c0,0-2-1-3,0s-3,3-9,3s-8-1-9-2c-1,2,0.5,2.3,2,4c3.6,4,11,9,16,9c3-2,4-2,4-2s-1-5-1-6
			C552,71.5,552,68.5,552,68.5z"/>
	</g>
</g>
<g id="Секатор2_1_">
	<path class="st4" d="M99.8,150.6c-0.6-1.7,1.5-2.9,2.8-1.8c11.9,10.9,22.4,14.9,38.9,16.6c28.8,3,58.4-4.1,71.4-29.6
		c7.5-14.7,3.8-22,20.6-29.7c10.6-4.9,21.5-1.6,21.5-1.6l2.1-12.8l42.1-41c0,0,20.8,8.1,30.9,11.6c23.1,8.1,69.7-35.7,186.5-36.8
		l-3.6,27c0,0-41.6,6.1-72.4,17.9c-30.7,11.7-88.5,39-108,28.9s-26.8-17.7-29.2,12.8c-15.1,7.2-23,10.3-23,10.3s2.2,5.3,1.3,15.2
		c-1.7,18.9-6.8,19.9-21.8,26.2c-15,6.3-31.6,12.4-38.9,16.5c-7.2,4-38.1,23.3-72.4,12C122.6,183.7,104.9,165.8,99.8,150.6z"/>
	<path class="st5" d="M243.3,166.9c0,0-18.4,0.9-28.8-21.3c-0.9-3-0.7-6.3-1.5-10c0,0.1-0.1,0.1-0.1,0.2
		c-13.1,25.6-42.7,32.6-71.4,29.6c-16.6-1.7-27-5.7-38.9-16.6c-1.3-1.2-3.3,0.1-2.8,1.8c5.2,15.2,22.8,33.1,48.9,41.7
		c34.3,11.2,65.2-8,72.4-12c5-2.8,14.6-6.6,25-10.8L243.3,166.9z"/>
	<path class="st6" d="M214.5,145.6c-0.9-3-0.7-6.3-1.5-10c0,0.1-0.1,0.1-0.1,0.2c-13.1,25.6-42.7,32.6-71.4,29.6
		c-16.6-1.7-27-5.7-38.9-16.6c-1.3-1.2,12.3,17.1,39.5,20.7C187,175.5,217,151.5,214.5,145.6z"/>
	<path class="st7" d="M122.7,87.2c0,0,96.6,12.9,126.1,16.8s31.3,21.7,26.8,42.7c24.3,4.9,30.8,6.6,30.8,6.6s-2.3,17.2,4,19.7
		s31.6,0.1,42.3,1.5c10.6,1.4,49.1,6.5,56.3,9.2s73.8,21.5,108,39.4c-42.6,6.8-48.6,8.5-48.6,8.5s-103.8-27.2-123-27.2
		c-19.2-0.1-42.1,16-42.1,16L243.4,167c0,0-19.3,0.8-29.6-21.4c-1.7-6.1-17.9,1.8-43.9-8.3C134.1,123.2,122.7,87.2,122.7,87.2z"/>
	<path class="st6" d="M122.7,87.2c0,0,4,0.4,11.3,1.3c21.6,36.8,44,44,77,44c2,3,2,9,2.6,13c-1.7-6.1-17.9,1.8-43.9-8.3
		C134.1,123.2,122.7,87.2,122.7,87.2z"/>
	<path class="st8" d="M332.7,99.3c0,0,8.2,36.1-4.3,74.8c-2.5-0.2-4.9,0.4-6.5,0.4c-10.1-0.4-5.2,0-11.5-1.5
		c-10.7-19.8,9-73.8,10.6-79.8C322.6,93.8,332.7,99.3,332.7,99.3z"/>
	<path class="st4" d="M190.2,96.6c15.6,2.1,26.8,1,60.4,7.1c28.9,5.3,29.9,24.6,26.9,43.3c24.3,4.9,29,6,29,6s1,16,4,20
		c2,2,31.5,0,42.2,1.4c10.6,1.4,49.1,6.5,56.3,9.2s73.8,21.5,108,39.4c-42.6,6.8-48.6,8.5-48.6,8.5s-103.8-27.2-123-27.2
		c-19.2-0.1-42.1,16-42.1,16l-59.9-53.4c0,0-18.4,0.9-28.8-21.3c-2.3-7.8,2.4-18-21-30.3c-9.9-5.2-19.1-6.7-18.1-14.1
		C176.2,95.5,180.9,95.3,190.2,96.6z"/>
	
		<linearGradient id="SVGID_1_" gradientUnits="userSpaceOnUse" x1="258.0133" y1="107.1098" x2="228.5867" y2="118.0902" gradientTransform="matrix(1 0 0 -1 0 245)">
		<stop  offset="0" style="stop-color:#FFFFFF"/>
		<stop  offset="1" style="stop-color:#000000"/>
	</linearGradient>
	<circle class="st9" cx="243.3" cy="132.4" r="15.7"/>
	<circle class="st10" cx="243.3" cy="132.4" r="15.7"/>
	<g>
		<circle class="st5" cx="158.5" cy="181.4" r="6.6"/>
		<path class="st11" d="M158.5,188.4c-0.3,0-0.6,0-0.9-0.1c-3.8-0.5-6.5-4-6-7.8s4-6.5,7.8-6s6.5,4,6,7.8l0,0
			C165,185.8,162,188.4,158.5,188.4z M158.5,175.3c-3,0-5.7,2.3-6.1,5.4c-0.5,3.4,1.9,6.5,5.3,6.9c3.4,0.5,6.5-1.9,6.9-5.3l0,0
			c0.4-3.4-1.9-6.5-5.3-6.9C159.1,175.3,158.8,175.3,158.5,175.3z"/>
	</g>
	<g>
		<circle class="st5" cx="201.5" cy="173.4" r="6.6"/>
		<path class="st11" d="M201.5,180.4c-0.3,0-0.6,0-0.9-0.1c-3.8-0.5-6.5-4-6-7.8s4-6.5,7.8-6s6.5,4,6,7.8l0,0
			C208,177.8,205,180.4,201.5,180.4z M201.5,167.3c-3,0-5.7,2.3-6.1,5.4c-0.5,3.4,1.9,6.5,5.3,6.9c3.4,0.5,6.5-1.9,6.9-5.3l0,0
			c0.4-3.4-1.9-6.5-5.3-6.9C202.1,167.3,201.8,167.3,201.5,167.3z"/>
	</g>
	<path class="st12" d="M246,171.5l-2.7-3c-1.3,0-9.6-0.4-17.1-6.1c-11.5-8.6-12.9-17.7-13.8-24.3c-0.3-2.3-0.6-4.3-1.3-5.9
		c-2.9-6.8-11.7-11.7-11.8-11.8c-3-1.7-6.3-3.3-9.5-4.9c-6.5-3.2-12.2-6-13.7-8.3c-1.6-2.5-1.8-5.5-0.5-7.9s3.9-3.9,6.9-3.9h0.5
		l10,1l0,0h-10h-0.5c-2.7,0-4.9,1.3-6.1,3.4c-1.1,2.1-1,4.7,0.5,6.9c1.3,2,7.1,4.9,13.3,7.9c3.2,1.6,6.5,3.2,9.6,4.9
		c0.4,0.2,9.2,5.2,12.2,12.2c0.7,1.7,1,3.7,1.4,6.1c1,6.5,2.3,15.3,13.5,23.7c7.8,5.8,16.6,5.9,16.7,5.9h0.2l3.3,3L246,171.5z"/>
	<path class="st12" d="M281,147.5l-3.6-0.6l0.1-0.5c3.4-20.8,0.9-35.9-22.1-41.9l-0.5-0.1l0.3-1l0.5,0.1
		c23.6,6.2,26.3,21.5,22.9,42.6l2.4,0.4L281,147.5L281,147.5z"/>
</g>
</svg>
